<svg viewBox="0 0 1000 1000" fill="none" xmlns="http://www.w3.org/2000/svg"><path d="M375 552.083C265.694 552.083 177.083 640.692 177.083 750C177.083 859.308 265.694 947.917 375 947.917C484.308 947.917 572.917 859.308 572.917 750C572.917 640.692 484.308 552.083 375 552.083Z" fill="currentColor"/><path fill-rule="evenodd" clip-rule="evenodd" d="M541.667 52.0834C558.925 52.0834 572.917 66.0746 572.917 83.3334C572.917 204.146 670.854 302.083 791.667 302.083C808.925 302.083 822.917 316.075 822.917 333.333C822.917 350.592 808.925 364.583 791.667 364.583C636.338 364.583 510.417 238.663 510.417 83.3334C510.417 66.0746 524.408 52.0834 541.667 52.0834Z" fill="currentColor"/><path opacity="0.5" d="M510.417 605.662V83.3333C510.417 150.311 533.829 211.821 572.917 260.125V750C572.917 693.079 548.888 641.767 510.417 605.662Z" fill="currentColor"/></svg>